<?xml version="1.0"?><svg xmlns="http://www.w3.org/2000/svg" id="b37f8dd7-59c5-4e6e-a8a8-6aae1364e9a7" data-name="Layer 2" viewBox="0 0 190 190"><defs><style>.a3fe344f-761c-41c6-8f10-d71f3e6c9608{fill:none;stroke:#231f20;stroke-linecap:round;stroke-linejoin:round;stroke-width:7px;}</style></defs><title/><path class="a3fe344f-761c-41c6-8f10-d71f3e6c9608" d="M95,65.63s-1.74.25-4.55.86l-1.14.25c-2,.45-4.29,1-6.87,1.81a12.11,12.11,0,0,1,6.87-2.87c.35,0,.7-.05,1.06-.05Z"/><path class="a3fe344f-761c-41c6-8f10-d71f3e6c9608" d="M96,77.86H94c.18-1,.34-1.92.47-2.9q.06-.36.09-.72c.11-.82.19-1.65.26-2.49.12-1.46.19-3,.2-4.49,0,1.53.08,3,.2,4.49.07.85.15,1.68.26,2.5,0,.23,0,.47.09.7C95.67,75.94,95.83,76.91,96,77.86Z"/><path class="a3fe344f-761c-41c6-8f10-d71f3e6c9608" d="M107.57,68.55c-2.57-.76-4.92-1.36-6.87-1.81l-1.15-.24c-2.82-.61-4.56-.87-4.56-.87h4.65c.36,0,.71,0,1.06.05A12.11,12.11,0,0,1,107.57,68.55Z"/><path class="a3fe344f-761c-41c6-8f10-d71f3e6c9608" d="M121.77,113.53c0,.34-.09.69-.15,1a21.92,21.92,0,0,1-2.48,7.2,19.76,19.76,0,0,1-1.36,2.1c-.73,1-1.45,1.94-2.16,2.86-3.57,4.67-6.82,8.57-9.63,11.92-5.92,7.07-9.91,11.72-11,16-1.08-4.3-5.07-8.95-11-16-2.81-3.35-6.07-7.26-9.65-11.93-.7-.92-1.42-1.87-2.15-2.85a19.76,19.76,0,0,1-1.36-2.1,22.15,22.15,0,0,1-2.48-7.2c-.06-.34-.11-.69-.15-1a37.57,37.57,0,0,0,13.21-9.66A49.52,49.52,0,0,0,89.12,92.5,55.49,55.49,0,0,0,94,77.86h2a55.48,55.48,0,0,0,4.84,14.64,49.84,49.84,0,0,0,7.69,11.36A37.54,37.54,0,0,0,121.77,113.53Z"/><path class="a3fe344f-761c-41c6-8f10-d71f3e6c9608" d="M89.12,92.5c1.92.08,3.89.13,5.88.13s3.94,0,5.85-.13"/><path class="a3fe344f-761c-41c6-8f10-d71f3e6c9608" d="M81.43,103.86c4.37.22,8.91.34,13.57.34s9.18-.12,13.54-.34"/><path class="a3fe344f-761c-41c6-8f10-d71f3e6c9608" d="M68.37,114.56c8.16.79,17.17,1.22,26.63,1.22s18.46-.43,26.62-1.22"/><path class="a3fe344f-761c-41c6-8f10-d71f3e6c9608" d="M74.36,126.71c6.53.42,13.46.64,20.64.64s14.09-.22,20.62-.63"/><path class="a3fe344f-761c-41c6-8f10-d71f3e6c9608" d="M84,138.64c3.55.19,7.23.28,11,.28s7.44-.09,11-.28"/><path class="a3fe344f-761c-41c6-8f10-d71f3e6c9608" d="M142,101.7c-.82,12.71-10.14,16-20.27,11.83a37.54,37.54,0,0,1-13.23-9.67,49.84,49.84,0,0,1-7.69-11.36A55.48,55.48,0,0,1,96,77.86c-.18-1-.34-1.92-.47-2.91,0-.23-.07-.47-.09-.7-.11-.82-.19-1.65-.26-2.5-.12-1.46-.19-3-.2-4.49,0-.54,0-1.08,0-1.63,0,0,1.74.26,4.56.87l1.15.24c2,.45,4.3,1.05,6.87,1.81,1.31.39,2.68.82,4.08,1.3C125.63,74.64,143.17,84.18,142,101.7Z"/><path class="a3fe344f-761c-41c6-8f10-d71f3e6c9608" d="M100.7,56.22V66.74l-1.15-.24c-2.82-.61-4.56-.87-4.56-.87s-1.74.25-4.55.86l-1.14.25V56.22a5.49,5.49,0,0,1,.23-1.58A5.69,5.69,0,0,1,99,52.18a5.77,5.77,0,0,1,1.44,2.46A5.49,5.49,0,0,1,100.7,56.22Z"/><path class="a3fe344f-761c-41c6-8f10-d71f3e6c9608" d="M95,65.63c0,.55,0,1.09,0,1.63,0,1.53-.08,3-.2,4.49-.07.84-.15,1.67-.26,2.49q0,.36-.09.72c-.13,1-.29,2-.47,2.9A55.49,55.49,0,0,1,89.12,92.5a49.52,49.52,0,0,1-7.69,11.36,37.57,37.57,0,0,1-13.21,9.66c-10.14,4.17-19.46.9-20.28-11.82C46.81,84.17,64.36,74.63,78.35,69.85c1.4-.49,2.77-.92,4.08-1.3,2.58-.77,4.92-1.36,6.87-1.81l1.14-.25C93.25,65.88,95,65.63,95,65.63Z"/><path class="a3fe344f-761c-41c6-8f10-d71f3e6c9608" d="M95.19,71.75h-.4c.12-1.46.19-3,.2-4.49C95,68.79,95.07,70.29,95.19,71.75Z"/><path class="a3fe344f-761c-41c6-8f10-d71f3e6c9608" d="M89.53,54.64a5.49,5.49,0,0,0-.23,1.58V66.74c-2,.45-4.29,1-6.87,1.81-1.31.38-2.68.81-4.08,1.3a11,11,0,0,1,10.2-15.26A7.94,7.94,0,0,1,89.53,54.64Z"/><path class="a3fe344f-761c-41c6-8f10-d71f3e6c9608" d="M112.49,65.63a11,11,0,0,1-.84,4.22c-1.4-.48-2.77-.91-4.08-1.3-2.57-.76-4.92-1.36-6.87-1.81V56.22a5.49,5.49,0,0,0-.23-1.58,7.78,7.78,0,0,1,1,0A11,11,0,0,1,112.49,65.63Z"/><path class="a3fe344f-761c-41c6-8f10-d71f3e6c9608" d="M67.87,35.34s15.6.4,23.2,16.65"/><path class="a3fe344f-761c-41c6-8f10-d71f3e6c9608" d="M122.13,35.34s-15.6.4-23.2,16.65"/><polyline class="a3fe344f-761c-41c6-8f10-d71f3e6c9608" points="70.86 121.76 56.62 121.76 45.75 136.11"/><polyline class="a3fe344f-761c-41c6-8f10-d71f3e6c9608" points="77.51 131.47 63.27 131.47 52.4 145.81"/><polyline class="a3fe344f-761c-41c6-8f10-d71f3e6c9608" points="119.14 121.76 133.38 121.76 144.25 136.11"/><polyline class="a3fe344f-761c-41c6-8f10-d71f3e6c9608" points="112.49 131.47 126.73 131.47 137.6 145.81"/></svg>